<svg xmlns="http://www.w3.org/2000/svg" xmlns:xlink="http://www.w3.org/1999/xlink" width="256" zoomAndPan="magnify" viewBox="0 0 192 191.999996" height="256" preserveAspectRatio="xMidYMid meet" version="1.0"><defs><clipPath id="329ae7788c"><path d="M 11.90625 3.84375 L 179.90625 3.84375 L 179.90625 188.34375 L 11.90625 188.34375 Z M 11.90625 3.84375 " clip-rule="nonzero"/></clipPath></defs><g clip-path="url(#329ae7788c)"><path fill="#000000" d="M 171.90625 35.964844 L 135.90625 35.964844 L 135.90625 30.3125 C 135.90625 29.445312 135.859375 28.585938 135.773438 27.722656 C 135.691406 26.863281 135.5625 26.007812 135.394531 25.160156 C 135.222656 24.3125 135.011719 23.476562 134.761719 22.648438 C 134.511719 21.820312 134.21875 21.007812 133.890625 20.210938 C 133.558594 19.410156 133.1875 18.628906 132.78125 17.867188 C 132.375 17.105469 131.929688 16.363281 131.453125 15.644531 C 130.972656 14.925781 130.457031 14.234375 129.910156 13.5625 C 129.363281 12.894531 128.785156 12.257812 128.171875 11.644531 C 127.5625 11.03125 126.925781 10.453125 126.257812 9.902344 C 125.589844 9.355469 124.898438 8.839844 124.179688 8.359375 C 123.464844 7.878906 122.726562 7.433594 121.964844 7.027344 C 121.203125 6.617188 120.425781 6.25 119.628906 5.917969 C 118.832031 5.585938 118.019531 5.292969 117.195312 5.042969 C 116.367188 4.789062 115.53125 4.578125 114.6875 4.410156 C 113.839844 4.242188 112.988281 4.113281 112.128906 4.027344 C 111.269531 3.941406 110.410156 3.898438 109.546875 3.894531 L 82.265625 3.894531 C 81.402344 3.898438 80.542969 3.941406 79.683594 4.027344 C 78.824219 4.113281 77.972656 4.242188 77.125 4.410156 C 76.28125 4.578125 75.445312 4.789062 74.617188 5.042969 C 73.792969 5.292969 72.980469 5.585938 72.183594 5.917969 C 71.386719 6.25 70.609375 6.617188 69.847656 7.027344 C 69.085938 7.433594 68.347656 7.878906 67.628906 8.359375 C 66.914062 8.839844 66.222656 9.355469 65.554688 9.902344 C 64.886719 10.453125 64.25 11.03125 63.636719 11.644531 C 63.027344 12.257812 62.449219 12.894531 61.902344 13.566406 C 61.355469 14.234375 60.839844 14.925781 60.359375 15.644531 C 59.882812 16.363281 59.4375 17.105469 59.03125 17.867188 C 58.621094 18.628906 58.253906 19.410156 57.921875 20.210938 C 57.59375 21.007812 57.300781 21.820312 57.050781 22.648438 C 56.796875 23.476562 56.589844 24.3125 56.417969 25.160156 C 56.25 26.007812 56.121094 26.863281 56.035156 27.722656 C 55.949219 28.585938 55.90625 29.445312 55.90625 30.3125 L 55.90625 35.964844 L 19.90625 35.964844 C 19.378906 35.964844 18.859375 36.015625 18.34375 36.117188 C 17.828125 36.222656 17.328125 36.371094 16.84375 36.574219 C 16.359375 36.777344 15.898438 37.023438 15.460938 37.316406 C 15.023438 37.609375 14.621094 37.941406 14.25 38.3125 C 13.878906 38.683594 13.546875 39.089844 13.253906 39.527344 C 12.960938 39.964844 12.714844 40.425781 12.515625 40.914062 C 12.3125 41.398438 12.164062 41.902344 12.058594 42.417969 C 11.957031 42.933594 11.90625 43.453125 11.90625 43.980469 C 11.90625 44.507812 11.957031 45.027344 12.058594 45.546875 C 12.164062 46.0625 12.3125 46.5625 12.515625 47.050781 C 12.714844 47.535156 12.960938 47.996094 13.253906 48.433594 C 13.546875 48.871094 13.878906 49.277344 14.25 49.648438 C 14.621094 50.023438 15.023438 50.355469 15.460938 50.648438 C 15.898438 50.941406 16.359375 51.1875 16.84375 51.386719 C 17.328125 51.589844 17.828125 51.742188 18.34375 51.84375 C 18.859375 51.945312 19.378906 52 19.90625 52 L 31.90625 52 L 31.90625 161.75 C 31.90625 162.621094 31.949219 163.488281 32.039062 164.355469 C 32.125 165.21875 32.25 166.078125 32.421875 166.929688 C 32.59375 167.785156 32.804688 168.625 33.058594 169.457031 C 33.308594 170.289062 33.601562 171.105469 33.9375 171.910156 C 34.269531 172.714844 34.640625 173.496094 35.050781 174.265625 C 35.460938 175.03125 35.90625 175.773438 36.390625 176.496094 C 36.871094 177.21875 37.390625 177.917969 37.941406 178.589844 C 38.492188 179.261719 39.074219 179.902344 39.6875 180.519531 C 40.300781 181.132812 40.945312 181.714844 41.617188 182.265625 C 42.285156 182.816406 42.984375 183.335938 43.703125 183.816406 C 44.425781 184.300781 45.171875 184.746094 45.933594 185.15625 C 46.699219 185.566406 47.484375 185.9375 48.285156 186.269531 C 49.089844 186.601562 49.90625 186.894531 50.734375 187.144531 C 51.566406 187.398438 52.40625 187.609375 53.257812 187.777344 C 54.109375 187.949219 54.964844 188.074219 55.828125 188.160156 C 56.691406 188.246094 57.558594 188.289062 58.425781 188.289062 L 133.425781 188.289062 C 134.292969 188.289062 135.15625 188.242188 136.019531 188.15625 C 136.882812 188.070312 137.738281 187.941406 138.589844 187.773438 C 139.4375 187.601562 140.277344 187.390625 141.109375 187.136719 C 141.9375 186.882812 142.753906 186.589844 143.554688 186.257812 C 144.355469 185.925781 145.136719 185.554688 145.902344 185.144531 C 146.664062 184.734375 147.40625 184.285156 148.128906 183.804688 C 148.847656 183.320312 149.542969 182.804688 150.214844 182.253906 C 150.882812 181.703125 151.527344 181.117188 152.136719 180.503906 C 152.75 179.890625 153.332031 179.246094 153.882812 178.574219 C 154.433594 177.90625 154.949219 177.207031 155.429688 176.484375 C 155.914062 175.761719 156.359375 175.019531 156.765625 174.253906 C 157.175781 173.488281 157.546875 172.703125 157.878906 171.902344 C 158.210938 171.097656 158.503906 170.28125 158.757812 169.449219 C 159.007812 168.621094 159.21875 167.777344 159.390625 166.925781 C 159.5625 166.074219 159.6875 165.214844 159.773438 164.351562 C 159.859375 163.488281 159.90625 162.621094 159.90625 161.75 L 159.90625 52 L 171.90625 52 C 172.429688 52 172.953125 51.945312 173.464844 51.84375 C 173.980469 51.742188 174.480469 51.589844 174.96875 51.386719 C 175.453125 51.1875 175.914062 50.941406 176.351562 50.648438 C 176.789062 50.355469 177.191406 50.023438 177.5625 49.648438 C 177.933594 49.277344 178.265625 48.871094 178.558594 48.433594 C 178.847656 47.996094 179.097656 47.535156 179.296875 47.050781 C 179.496094 46.5625 179.648438 46.0625 179.753906 45.546875 C 179.855469 45.027344 179.90625 44.507812 179.90625 43.980469 C 179.90625 43.453125 179.855469 42.933594 179.753906 42.417969 C 179.648438 41.902344 179.496094 41.398438 179.296875 40.914062 C 179.097656 40.425781 178.847656 39.964844 178.558594 39.527344 C 178.265625 39.089844 177.933594 38.683594 177.5625 38.3125 C 177.191406 37.941406 176.789062 37.609375 176.351562 37.316406 C 175.914062 37.023438 175.453125 36.777344 174.96875 36.574219 C 174.480469 36.371094 173.980469 36.222656 173.464844 36.117188 C 172.953125 36.015625 172.429688 35.964844 171.90625 35.964844 Z M 71.90625 30.3125 C 71.90625 29.628906 71.972656 28.957031 72.105469 28.285156 C 72.238281 27.617188 72.433594 26.96875 72.695312 26.339844 C 72.953125 25.710938 73.273438 25.109375 73.652344 24.542969 C 74.03125 23.976562 74.460938 23.453125 74.941406 22.972656 C 75.421875 22.488281 75.945312 22.058594 76.511719 21.679688 C 77.074219 21.300781 77.671875 20.980469 78.300781 20.71875 C 78.929688 20.460938 79.578125 20.261719 80.246094 20.128906 C 80.910156 19.996094 81.585938 19.929688 82.265625 19.929688 L 109.546875 19.929688 C 110.226562 19.929688 110.898438 19.996094 111.566406 20.128906 C 112.234375 20.261719 112.882812 20.460938 113.511719 20.71875 C 114.140625 20.980469 114.734375 21.300781 115.300781 21.679688 C 115.867188 22.058594 116.390625 22.488281 116.871094 22.972656 C 117.351562 23.453125 117.78125 23.976562 118.160156 24.542969 C 118.539062 25.109375 118.855469 25.710938 119.117188 26.339844 C 119.378906 26.96875 119.574219 27.617188 119.707031 28.285156 C 119.839844 28.957031 119.90625 29.628906 119.90625 30.3125 L 119.90625 35.964844 L 71.90625 35.964844 Z M 143.90625 161.75 C 143.902344 162.441406 143.835938 163.121094 143.699219 163.796875 C 143.5625 164.472656 143.363281 165.128906 143.097656 165.765625 C 142.832031 166.402344 142.511719 167.003906 142.128906 167.578125 C 141.746094 168.148438 141.3125 168.679688 140.824219 169.167969 C 140.339844 169.652344 139.808594 170.089844 139.238281 170.472656 C 138.667969 170.855469 138.066406 171.179688 137.429688 171.445312 C 136.796875 171.710938 136.140625 171.910156 135.46875 172.046875 C 134.792969 172.183594 134.113281 172.25 133.425781 172.253906 L 58.425781 172.253906 C 57.738281 172.253906 57.054688 172.1875 56.378906 172.054688 C 55.703125 171.917969 55.046875 171.71875 54.410156 171.457031 C 53.773438 171.191406 53.167969 170.867188 52.59375 170.484375 C 52.019531 170.101562 51.488281 169.667969 51 169.179688 C 50.511719 168.691406 50.078125 168.164062 49.691406 167.589844 C 49.308594 167.015625 48.984375 166.410156 48.71875 165.773438 C 48.453125 165.136719 48.25 164.480469 48.113281 163.804688 C 47.976562 163.125 47.910156 162.441406 47.90625 161.75 L 47.90625 52 L 143.90625 52 Z M 143.90625 161.75 " fill-opacity="1" fill-rule="nonzero"/></g><path fill="#000000" d="M 75.90625 69.996094 C 75.378906 69.996094 74.859375 70.046875 74.34375 70.152344 C 73.828125 70.253906 73.328125 70.40625 72.84375 70.605469 C 72.359375 70.808594 71.898438 71.054688 71.460938 71.347656 C 71.023438 71.640625 70.621094 71.972656 70.25 72.34375 C 69.878906 72.71875 69.546875 73.121094 69.253906 73.558594 C 68.960938 73.996094 68.714844 74.460938 68.515625 74.945312 C 68.3125 75.433594 68.164062 75.933594 68.058594 76.449219 C 67.957031 76.964844 67.90625 77.488281 67.90625 78.011719 L 67.90625 150.167969 C 67.90625 150.695312 67.957031 151.214844 68.058594 151.730469 C 68.160156 152.246094 68.3125 152.75 68.515625 153.234375 C 68.714844 153.722656 68.960938 154.183594 69.253906 154.621094 C 69.546875 155.058594 69.878906 155.464844 70.25 155.835938 C 70.621094 156.207031 71.023438 156.539062 71.460938 156.832031 C 71.898438 157.125 72.359375 157.371094 72.84375 157.574219 C 73.328125 157.777344 73.828125 157.925781 74.34375 158.03125 C 74.859375 158.132812 75.378906 158.183594 75.90625 158.183594 C 76.429688 158.183594 76.953125 158.132812 77.464844 158.03125 C 77.980469 157.925781 78.480469 157.777344 78.96875 157.574219 C 79.453125 157.371094 79.914062 157.125 80.351562 156.832031 C 80.789062 156.539062 81.191406 156.207031 81.5625 155.835938 C 81.933594 155.464844 82.265625 155.058594 82.558594 154.621094 C 82.847656 154.183594 83.097656 153.722656 83.296875 153.234375 C 83.496094 152.75 83.648438 152.246094 83.753906 151.730469 C 83.855469 151.214844 83.90625 150.695312 83.90625 150.167969 L 83.90625 78.011719 C 83.90625 77.488281 83.855469 76.964844 83.753906 76.449219 C 83.648438 75.933594 83.496094 75.433594 83.296875 74.945312 C 83.097656 74.460938 82.847656 73.996094 82.558594 73.558594 C 82.265625 73.121094 81.933594 72.71875 81.5625 72.34375 C 81.191406 71.972656 80.789062 71.640625 80.351562 71.347656 C 79.914062 71.054688 79.453125 70.808594 78.96875 70.605469 C 78.480469 70.40625 77.980469 70.253906 77.464844 70.152344 C 76.953125 70.046875 76.429688 69.996094 75.90625 69.996094 Z M 75.90625 69.996094 " fill-opacity="1" fill-rule="nonzero"/><path fill="#000000" d="M 115.90625 69.996094 C 115.378906 69.996094 114.859375 70.046875 114.34375 70.152344 C 113.828125 70.253906 113.328125 70.40625 112.84375 70.605469 C 112.359375 70.808594 111.898438 71.054688 111.460938 71.347656 C 111.023438 71.640625 110.621094 71.972656 110.25 72.34375 C 109.878906 72.71875 109.546875 73.121094 109.253906 73.558594 C 108.960938 73.996094 108.714844 74.460938 108.515625 74.945312 C 108.3125 75.433594 108.164062 75.933594 108.058594 76.449219 C 107.957031 76.964844 107.90625 77.488281 107.90625 78.011719 L 107.90625 150.167969 C 107.90625 150.695312 107.957031 151.214844 108.058594 151.730469 C 108.160156 152.246094 108.3125 152.75 108.515625 153.234375 C 108.714844 153.722656 108.960938 154.183594 109.253906 154.621094 C 109.546875 155.058594 109.878906 155.464844 110.25 155.835938 C 110.621094 156.207031 111.023438 156.539062 111.460938 156.832031 C 111.898438 157.125 112.359375 157.371094 112.84375 157.574219 C 113.328125 157.777344 113.828125 157.925781 114.34375 158.03125 C 114.859375 158.132812 115.378906 158.183594 115.90625 158.183594 C 116.429688 158.183594 116.953125 158.132812 117.464844 158.03125 C 117.980469 157.925781 118.480469 157.777344 118.96875 157.574219 C 119.453125 157.371094 119.914062 157.125 120.351562 156.832031 C 120.789062 156.539062 121.191406 156.207031 121.5625 155.835938 C 121.933594 155.464844 122.265625 155.058594 122.558594 154.621094 C 122.847656 154.183594 123.097656 153.722656 123.296875 153.234375 C 123.496094 152.75 123.648438 152.246094 123.753906 151.730469 C 123.855469 151.214844 123.90625 150.695312 123.90625 150.167969 L 123.90625 78.011719 C 123.90625 77.488281 123.855469 76.964844 123.753906 76.449219 C 123.648438 75.933594 123.496094 75.433594 123.296875 74.945312 C 123.097656 74.460938 122.847656 73.996094 122.558594 73.558594 C 122.265625 73.121094 121.933594 72.71875 121.5625 72.34375 C 121.191406 71.972656 120.789062 71.640625 120.351562 71.347656 C 119.914062 71.054688 119.453125 70.808594 118.96875 70.605469 C 118.480469 70.40625 117.980469 70.253906 117.464844 70.152344 C 116.953125 70.046875 116.429688 69.996094 115.90625 69.996094 Z M 115.90625 69.996094 " fill-opacity="1" fill-rule="nonzero"/></svg>