<svg xmlns="http://www.w3.org/2000/svg" xmlns:xlink="http://www.w3.org/1999/xlink" width="256" zoomAndPan="magnify" viewBox="0 0 192 191.999996" height="256" preserveAspectRatio="xMidYMid meet" version="1.0"><defs><clipPath id="f09e0d78be"><path d="M 11.90625 3.84375 L 179.90625 3.84375 L 179.90625 188.34375 L 11.90625 188.34375 Z M 11.90625 3.84375 " clip-rule="nonzero"/></clipPath></defs><g clip-path="url(#f09e0d78be)"><path fill="#ffffff" d="M 172.085938 35.929688 L 136.042969 35.929688 L 136.042969 30.285156 C 136.042969 29.421875 136 28.558594 135.914062 27.699219 C 135.828125 26.839844 135.699219 25.988281 135.53125 25.140625 C 135.359375 24.292969 135.152344 23.457031 134.898438 22.628906 C 134.648438 21.800781 134.355469 20.992188 134.023438 20.191406 C 133.695312 19.394531 133.324219 18.613281 132.917969 17.851562 C 132.507812 17.089844 132.066406 16.351562 131.585938 15.632812 C 131.105469 14.914062 130.589844 14.222656 130.042969 13.554688 C 129.492188 12.886719 128.914062 12.246094 128.304688 11.636719 C 127.691406 11.027344 127.054688 10.445312 126.386719 9.898438 C 125.71875 9.351562 125.023438 8.835938 124.304688 8.355469 C 123.589844 7.875 122.847656 7.429688 122.085938 7.023438 C 121.324219 6.617188 120.546875 6.246094 119.746094 5.914062 C 118.949219 5.582031 118.136719 5.292969 117.3125 5.039062 C 116.484375 4.789062 115.648438 4.578125 114.800781 4.410156 C 113.953125 4.238281 113.101562 4.113281 112.242188 4.027344 C 111.378906 3.941406 110.519531 3.898438 109.65625 3.894531 L 82.34375 3.894531 C 81.480469 3.898438 80.617188 3.941406 79.757812 4.027344 C 78.898438 4.113281 78.046875 4.238281 77.199219 4.410156 C 76.351562 4.578125 75.515625 4.789062 74.6875 5.039062 C 73.863281 5.292969 73.050781 5.582031 72.25 5.914062 C 71.453125 6.246094 70.675781 6.617188 69.914062 7.023438 C 69.152344 7.429688 68.410156 7.875 67.691406 8.355469 C 66.972656 8.835938 66.28125 9.351562 65.613281 9.898438 C 64.945312 10.445312 64.308594 11.027344 63.695312 11.636719 C 63.085938 12.246094 62.503906 12.886719 61.957031 13.554688 C 61.410156 14.222656 60.894531 14.914062 60.414062 15.632812 C 59.933594 16.351562 59.492188 17.089844 59.082031 17.851562 C 58.675781 18.613281 58.304688 19.394531 57.972656 20.191406 C 57.644531 20.992188 57.351562 21.800781 57.101562 22.628906 C 56.847656 23.457031 56.636719 24.292969 56.46875 25.140625 C 56.300781 25.988281 56.171875 26.839844 56.085938 27.699219 C 56 28.558594 55.957031 29.421875 55.953125 30.285156 L 55.953125 35.929688 L 19.914062 35.929688 C 19.390625 35.929688 18.867188 35.984375 18.351562 36.085938 C 17.835938 36.1875 17.335938 36.339844 16.851562 36.542969 C 16.363281 36.742188 15.902344 36.988281 15.464844 37.28125 C 15.027344 37.574219 14.625 37.90625 14.25 38.277344 C 13.878906 38.648438 13.546875 39.054688 13.253906 39.492188 C 12.964844 39.929688 12.71875 40.390625 12.515625 40.875 C 12.3125 41.359375 12.164062 41.863281 12.058594 42.378906 C 11.957031 42.894531 11.90625 43.414062 11.90625 43.941406 C 11.90625 44.464844 11.957031 44.988281 12.058594 45.503906 C 12.164062 46.019531 12.3125 46.519531 12.515625 47.003906 C 12.71875 47.492188 12.964844 47.953125 13.253906 48.390625 C 13.546875 48.828125 13.878906 49.230469 14.25 49.601562 C 14.625 49.976562 15.027344 50.308594 15.464844 50.597656 C 15.902344 50.890625 16.363281 51.136719 16.851562 51.339844 C 17.335938 51.539062 17.835938 51.691406 18.351562 51.796875 C 18.867188 51.898438 19.390625 51.949219 19.914062 51.949219 L 31.929688 51.949219 L 31.929688 161.589844 C 31.929688 162.460938 31.972656 163.328125 32.058594 164.191406 C 32.144531 165.054688 32.273438 165.914062 32.445312 166.765625 C 32.617188 167.617188 32.828125 168.457031 33.082031 169.289062 C 33.335938 170.121094 33.628906 170.9375 33.960938 171.738281 C 34.292969 172.542969 34.664062 173.324219 35.074219 174.089844 C 35.488281 174.855469 35.933594 175.601562 36.417969 176.324219 C 36.898438 177.042969 37.417969 177.742188 37.96875 178.410156 C 38.519531 179.082031 39.105469 179.726562 39.71875 180.339844 C 40.332031 180.953125 40.976562 181.535156 41.648438 182.085938 C 42.320312 182.636719 43.019531 183.152344 43.738281 183.636719 C 44.460938 184.117188 45.207031 184.5625 45.972656 184.972656 C 46.738281 185.382812 47.523438 185.75 48.328125 186.082031 C 49.128906 186.417969 49.945312 186.707031 50.777344 186.960938 C 51.609375 187.210938 52.449219 187.421875 53.304688 187.59375 C 54.15625 187.761719 55.011719 187.886719 55.878906 187.972656 C 56.742188 188.058594 57.609375 188.101562 58.476562 188.101562 L 133.5625 188.101562 C 134.429688 188.101562 135.296875 188.054688 136.160156 187.96875 C 137.023438 187.882812 137.878906 187.753906 138.730469 187.585938 C 139.582031 187.414062 140.421875 187.203125 141.253906 186.949219 C 142.082031 186.699219 142.898438 186.40625 143.699219 186.074219 C 144.5 185.738281 145.285156 185.367188 146.050781 184.960938 C 146.816406 184.550781 147.558594 184.101562 148.28125 183.621094 C 149 183.136719 149.699219 182.621094 150.367188 182.070312 C 151.039062 181.519531 151.679688 180.9375 152.296875 180.324219 C 152.910156 179.710938 153.492188 179.070312 154.042969 178.398438 C 154.59375 177.726562 155.109375 177.03125 155.589844 176.308594 C 156.074219 175.589844 156.519531 174.84375 156.929688 174.082031 C 157.339844 173.316406 157.710938 172.53125 158.042969 171.730469 C 158.375 170.929688 158.667969 170.113281 158.921875 169.28125 C 159.171875 168.453125 159.386719 167.613281 159.554688 166.761719 C 159.726562 165.910156 159.855469 165.050781 159.941406 164.1875 C 160.027344 163.324219 160.070312 162.460938 160.070312 161.589844 L 160.070312 51.949219 L 172.085938 51.949219 C 172.609375 51.949219 173.132812 51.898438 173.648438 51.796875 C 174.164062 51.691406 174.664062 51.539062 175.148438 51.339844 C 175.636719 51.136719 176.097656 50.890625 176.535156 50.597656 C 176.972656 50.308594 177.375 49.976562 177.746094 49.601562 C 178.121094 49.230469 178.453125 48.828125 178.742188 48.390625 C 179.035156 47.953125 179.28125 47.492188 179.484375 47.003906 C 179.683594 46.519531 179.835938 46.019531 179.941406 45.503906 C 180.042969 44.988281 180.09375 44.464844 180.09375 43.941406 C 180.09375 43.414062 180.042969 42.894531 179.941406 42.378906 C 179.835938 41.863281 179.683594 41.359375 179.484375 40.875 C 179.28125 40.390625 179.035156 39.929688 178.742188 39.492188 C 178.453125 39.054688 178.121094 38.648438 177.746094 38.277344 C 177.375 37.90625 176.972656 37.574219 176.535156 37.28125 C 176.097656 36.988281 175.636719 36.742188 175.148438 36.542969 C 174.664062 36.339844 174.164062 36.1875 173.648438 36.085938 C 173.132812 35.984375 172.609375 35.929688 172.085938 35.929688 Z M 71.972656 30.285156 C 71.972656 29.605469 72.039062 28.929688 72.171875 28.261719 C 72.304688 27.59375 72.5 26.945312 72.761719 26.316406 C 73.023438 25.6875 73.34375 25.089844 73.722656 24.523438 C 74.097656 23.957031 74.527344 23.433594 75.011719 22.953125 C 75.492188 22.46875 76.015625 22.039062 76.582031 21.660156 C 77.148438 21.28125 77.746094 20.964844 78.375 20.703125 C 79.003906 20.441406 79.652344 20.246094 80.320312 20.113281 C 80.988281 19.980469 81.664062 19.914062 82.34375 19.914062 L 109.65625 19.914062 C 110.335938 19.914062 111.011719 19.980469 111.679688 20.113281 C 112.347656 20.246094 112.996094 20.441406 113.625 20.703125 C 114.253906 20.964844 114.851562 21.28125 115.417969 21.660156 C 115.984375 22.039062 116.507812 22.46875 116.988281 22.953125 C 117.46875 23.433594 117.898438 23.957031 118.277344 24.523438 C 118.65625 25.089844 118.976562 25.6875 119.238281 26.316406 C 119.496094 26.945312 119.695312 27.59375 119.828125 28.261719 C 119.960938 28.929688 120.027344 29.605469 120.027344 30.285156 L 120.027344 35.929688 L 71.972656 35.929688 Z M 144.054688 161.589844 C 144.050781 162.28125 143.980469 162.960938 143.84375 163.636719 C 143.707031 164.308594 143.507812 164.964844 143.242188 165.601562 C 142.980469 166.234375 142.65625 166.839844 142.273438 167.410156 C 141.890625 167.984375 141.457031 168.511719 140.96875 169 C 140.480469 169.484375 139.953125 169.921875 139.382812 170.304688 C 138.808594 170.6875 138.207031 171.007812 137.570312 171.273438 C 136.933594 171.539062 136.28125 171.738281 135.605469 171.875 C 134.929688 172.011719 134.25 172.082031 133.5625 172.082031 L 58.476562 172.082031 C 57.789062 172.082031 57.105469 172.015625 56.429688 171.882812 C 55.75 171.746094 55.09375 171.546875 54.457031 171.285156 C 53.820312 171.023438 53.214844 170.699219 52.640625 170.316406 C 52.066406 169.933594 51.535156 169.5 51.042969 169.011719 C 50.554688 168.527344 50.121094 167.996094 49.734375 167.421875 C 49.351562 166.851562 49.023438 166.246094 48.757812 165.609375 C 48.492188 164.972656 48.292969 164.316406 48.15625 163.640625 C 48.019531 162.964844 47.949219 162.28125 47.945312 161.589844 L 47.945312 51.949219 L 144.054688 51.949219 Z M 144.054688 161.589844 " fill-opacity="1" fill-rule="nonzero"/></g><path fill="#ffffff" d="M 75.976562 69.929688 C 75.453125 69.929688 74.929688 69.980469 74.414062 70.082031 C 73.898438 70.1875 73.398438 70.335938 72.914062 70.539062 C 72.425781 70.738281 71.964844 70.988281 71.527344 71.277344 C 71.089844 71.570312 70.6875 71.902344 70.3125 72.273438 C 69.941406 72.648438 69.609375 73.050781 69.316406 73.488281 C 69.027344 73.925781 68.78125 74.386719 68.578125 74.875 C 68.375 75.359375 68.226562 75.859375 68.121094 76.375 C 68.019531 76.890625 67.96875 77.414062 67.96875 77.9375 L 67.96875 150.019531 C 67.96875 150.542969 68.019531 151.066406 68.121094 151.582031 C 68.226562 152.097656 68.375 152.597656 68.578125 153.082031 C 68.78125 153.570312 69.027344 154.03125 69.316406 154.46875 C 69.609375 154.90625 69.941406 155.308594 70.3125 155.683594 C 70.6875 156.054688 71.089844 156.386719 71.527344 156.675781 C 71.964844 156.96875 72.425781 157.214844 72.914062 157.417969 C 73.398438 157.617188 73.898438 157.769531 74.414062 157.875 C 74.929688 157.976562 75.453125 158.027344 75.976562 158.027344 C 76.503906 158.027344 77.023438 157.976562 77.539062 157.875 C 78.054688 157.769531 78.554688 157.617188 79.042969 157.417969 C 79.527344 157.214844 79.988281 156.96875 80.425781 156.675781 C 80.863281 156.386719 81.269531 156.054688 81.640625 155.683594 C 82.011719 155.308594 82.34375 154.90625 82.636719 154.46875 C 82.929688 154.03125 83.175781 153.570312 83.375 153.082031 C 83.578125 152.597656 83.730469 152.097656 83.832031 151.582031 C 83.933594 151.066406 83.984375 150.542969 83.984375 150.019531 L 83.984375 77.9375 C 83.984375 77.414062 83.933594 76.890625 83.832031 76.375 C 83.730469 75.859375 83.578125 75.359375 83.375 74.875 C 83.175781 74.386719 82.929688 73.925781 82.636719 73.488281 C 82.34375 73.050781 82.011719 72.648438 81.640625 72.273438 C 81.269531 71.902344 80.863281 71.570312 80.425781 71.277344 C 79.988281 70.988281 79.527344 70.738281 79.042969 70.539062 C 78.554688 70.335938 78.054688 70.1875 77.539062 70.082031 C 77.023438 69.980469 76.503906 69.929688 75.976562 69.929688 Z M 75.976562 69.929688 " fill-opacity="1" fill-rule="nonzero"/><path fill="#ffffff" d="M 116.023438 69.929688 C 115.496094 69.929688 114.976562 69.980469 114.460938 70.082031 C 113.945312 70.1875 113.441406 70.335938 112.957031 70.539062 C 112.472656 70.738281 112.007812 70.988281 111.574219 71.277344 C 111.136719 71.570312 110.730469 71.902344 110.359375 72.273438 C 109.988281 72.648438 109.65625 73.050781 109.363281 73.488281 C 109.070312 73.925781 108.824219 74.386719 108.621094 74.875 C 108.421875 75.359375 108.269531 75.859375 108.167969 76.375 C 108.0625 76.890625 108.011719 77.414062 108.011719 77.9375 L 108.011719 150.019531 C 108.011719 150.542969 108.0625 151.066406 108.167969 151.582031 C 108.269531 152.097656 108.421875 152.597656 108.621094 153.082031 C 108.824219 153.570312 109.070312 154.03125 109.363281 154.46875 C 109.65625 154.90625 109.988281 155.308594 110.359375 155.683594 C 110.730469 156.054688 111.136719 156.386719 111.574219 156.675781 C 112.007812 156.96875 112.472656 157.214844 112.957031 157.417969 C 113.441406 157.617188 113.945312 157.769531 114.460938 157.875 C 114.976562 157.976562 115.496094 158.027344 116.023438 158.027344 C 116.546875 158.027344 117.070312 157.976562 117.585938 157.875 C 118.101562 157.769531 118.601562 157.617188 119.085938 157.417969 C 119.574219 157.214844 120.035156 156.96875 120.472656 156.675781 C 120.910156 156.386719 121.3125 156.054688 121.683594 155.683594 C 122.058594 155.308594 122.390625 154.90625 122.679688 154.46875 C 122.972656 154.03125 123.21875 153.570312 123.421875 153.082031 C 123.621094 152.597656 123.773438 152.097656 123.878906 151.582031 C 123.980469 151.066406 124.03125 150.542969 124.03125 150.019531 L 124.03125 77.9375 C 124.03125 77.414062 123.980469 76.890625 123.878906 76.375 C 123.773438 75.859375 123.621094 75.359375 123.421875 74.875 C 123.21875 74.386719 122.972656 73.925781 122.679688 73.488281 C 122.390625 73.050781 122.058594 72.648438 121.683594 72.273438 C 121.3125 71.902344 120.910156 71.570312 120.472656 71.277344 C 120.035156 70.988281 119.574219 70.738281 119.085938 70.539062 C 118.601562 70.335938 118.101562 70.1875 117.585938 70.082031 C 117.070312 69.980469 116.546875 69.929688 116.023438 69.929688 Z M 116.023438 69.929688 " fill-opacity="1" fill-rule="nonzero"/></svg>