<svg xmlns="http://www.w3.org/2000/svg" xmlns:xlink="http://www.w3.org/1999/xlink" width="256" zoomAndPan="magnify" viewBox="0 0 192 191.999996" height="256" preserveAspectRatio="xMidYMid meet" version="1.0"><defs><clipPath id="4cbae9bf4e"><path d="M 17 3.714844 L 175 3.714844 L 175 187 L 17 187 Z M 17 3.714844 " clip-rule="nonzero"/></clipPath></defs><g clip-path="url(#4cbae9bf4e)"><path fill="#000000" d="M 96.425781 3.359375 C 94.847656 3.359375 93.261719 3.957031 92.058594 5.160156 L 71.824219 25.386719 C 68.585938 28.625 70.882812 34.175781 75.464844 34.175781 L 117.375 34.175781 C 121.960938 34.175781 124.265625 28.625 121.027344 25.386719 L 100.796875 5.160156 C 99.589844 3.957031 98.003906 3.359375 96.425781 3.359375 Z M 26.789062 51.582031 C 26.210938 51.574219 25.636719 51.621094 25.070312 51.726562 C 24.503906 51.832031 23.953125 51.992188 23.417969 52.207031 C 22.882812 52.421875 22.375 52.6875 21.890625 53.003906 C 21.410156 53.320312 20.960938 53.683594 20.550781 54.085938 C 20.140625 54.492188 19.773438 54.933594 19.449219 55.410156 C 19.128906 55.886719 18.855469 56.394531 18.632812 56.925781 C 18.410156 57.457031 18.242188 58.007812 18.128906 58.570312 C 18.015625 59.136719 17.957031 59.707031 17.957031 60.285156 C 17.957031 60.859375 18.015625 61.433594 18.128906 61.996094 C 18.242188 62.5625 18.410156 63.113281 18.632812 63.644531 C 18.855469 64.175781 19.128906 64.679688 19.449219 65.160156 C 19.773438 65.636719 20.140625 66.078125 20.550781 66.480469 C 20.960938 66.886719 21.410156 67.246094 21.890625 67.5625 C 22.375 67.878906 22.882812 68.144531 23.417969 68.359375 C 23.953125 68.574219 24.503906 68.734375 25.070312 68.839844 C 25.636719 68.945312 26.210938 68.996094 26.789062 68.988281 L 166.066406 68.988281 C 166.644531 68.996094 167.214844 68.945312 167.78125 68.839844 C 168.347656 68.734375 168.898438 68.574219 169.4375 68.359375 C 169.972656 68.144531 170.480469 67.878906 170.960938 67.5625 C 171.445312 67.246094 171.890625 66.886719 172.300781 66.480469 C 172.710938 66.078125 173.078125 65.636719 173.402344 65.160156 C 173.726562 64.679688 174 64.175781 174.222656 63.644531 C 174.445312 63.113281 174.613281 62.5625 174.726562 61.996094 C 174.839844 61.433594 174.894531 60.859375 174.894531 60.285156 C 174.894531 59.707031 174.839844 59.136719 174.726562 58.570312 C 174.613281 58.007812 174.445312 57.457031 174.222656 56.925781 C 174 56.394531 173.726562 55.886719 173.402344 55.410156 C 173.078125 54.933594 172.710938 54.492188 172.300781 54.085938 C 171.890625 53.683594 171.445312 53.320312 170.960938 53.003906 C 170.480469 52.6875 169.972656 52.421875 169.4375 52.207031 C 168.898438 51.992188 168.347656 51.832031 167.78125 51.726562 C 167.214844 51.621094 166.644531 51.574219 166.066406 51.582031 Z M 26.789062 86.394531 C 26.210938 86.386719 25.636719 86.433594 25.070312 86.539062 C 24.503906 86.644531 23.953125 86.804688 23.417969 87.019531 C 22.882812 87.234375 22.375 87.5 21.890625 87.816406 C 21.410156 88.132812 20.960938 88.492188 20.550781 88.898438 C 20.140625 89.304688 19.773438 89.746094 19.453125 90.222656 C 19.128906 90.699219 18.855469 91.203125 18.632812 91.738281 C 18.410156 92.269531 18.242188 92.816406 18.128906 93.382812 C 18.015625 93.949219 17.957031 94.519531 17.957031 95.097656 C 17.957031 95.671875 18.015625 96.242188 18.128906 96.808594 C 18.242188 97.375 18.410156 97.921875 18.632812 98.453125 C 18.855469 98.988281 19.128906 99.492188 19.453125 99.96875 C 19.773438 100.449219 20.140625 100.886719 20.550781 101.292969 C 20.960938 101.699219 21.410156 102.058594 21.890625 102.375 C 22.375 102.691406 22.882812 102.957031 23.417969 103.171875 C 23.953125 103.386719 24.503906 103.546875 25.070312 103.652344 C 25.636719 103.757812 26.210938 103.808594 26.789062 103.796875 L 166.066406 103.796875 C 166.644531 103.808594 167.214844 103.757812 167.78125 103.652344 C 168.347656 103.546875 168.898438 103.386719 169.433594 103.171875 C 169.96875 102.957031 170.480469 102.691406 170.960938 102.375 C 171.445312 102.058594 171.890625 101.699219 172.300781 101.292969 C 172.710938 100.886719 173.078125 100.449219 173.402344 99.96875 C 173.726562 99.492188 173.996094 98.988281 174.21875 98.453125 C 174.441406 97.921875 174.609375 97.375 174.726562 96.808594 C 174.839844 96.242188 174.894531 95.671875 174.894531 95.097656 C 174.894531 94.519531 174.839844 93.949219 174.726562 93.382812 C 174.609375 92.816406 174.441406 92.269531 174.21875 91.738281 C 173.996094 91.203125 173.726562 90.699219 173.402344 90.222656 C 173.078125 89.746094 172.710938 89.304688 172.300781 88.898438 C 171.890625 88.492188 171.445312 88.132812 170.960938 87.816406 C 170.480469 87.5 169.96875 87.234375 169.433594 87.019531 C 168.898438 86.804688 168.347656 86.644531 167.78125 86.539062 C 167.214844 86.433594 166.644531 86.386719 166.066406 86.394531 Z M 26.789062 121.203125 C 26.210938 121.195312 25.636719 121.246094 25.070312 121.351562 C 24.503906 121.457031 23.953125 121.617188 23.417969 121.832031 C 22.882812 122.046875 22.375 122.3125 21.890625 122.628906 C 21.410156 122.945312 20.960938 123.304688 20.550781 123.710938 C 20.140625 124.113281 19.773438 124.554688 19.453125 125.035156 C 19.128906 125.511719 18.855469 126.015625 18.632812 126.546875 C 18.410156 127.078125 18.242188 127.628906 18.128906 128.195312 C 18.015625 128.757812 17.957031 129.332031 17.957031 129.90625 C 17.957031 130.484375 18.015625 131.054688 18.128906 131.621094 C 18.242188 132.1875 18.410156 132.734375 18.632812 133.265625 C 18.855469 133.796875 19.128906 134.304688 19.453125 134.78125 C 19.773438 135.257812 20.140625 135.699219 20.550781 136.105469 C 20.960938 136.507812 21.410156 136.871094 21.890625 137.1875 C 22.375 137.503906 22.882812 137.769531 23.417969 137.984375 C 23.953125 138.199219 24.503906 138.359375 25.070312 138.464844 C 25.636719 138.570312 26.210938 138.617188 26.789062 138.609375 L 166.066406 138.609375 C 166.644531 138.617188 167.214844 138.570312 167.78125 138.464844 C 168.347656 138.359375 168.898438 138.199219 169.433594 137.984375 C 169.96875 137.769531 170.480469 137.503906 170.960938 137.1875 C 171.445312 136.871094 171.890625 136.507812 172.300781 136.105469 C 172.710938 135.699219 173.078125 135.257812 173.402344 134.78125 C 173.726562 134.304688 173.996094 133.796875 174.21875 133.265625 C 174.441406 132.734375 174.609375 132.1875 174.726562 131.621094 C 174.839844 131.054688 174.894531 130.484375 174.894531 129.90625 C 174.894531 129.332031 174.839844 128.757812 174.726562 128.195312 C 174.609375 127.628906 174.441406 127.078125 174.21875 126.546875 C 173.996094 126.015625 173.726562 125.511719 173.402344 125.035156 C 173.078125 124.554688 172.710938 124.113281 172.300781 123.710938 C 171.890625 123.304688 171.445312 122.945312 170.960938 122.628906 C 170.480469 122.3125 169.96875 122.046875 169.433594 121.832031 C 168.898438 121.617188 168.347656 121.457031 167.78125 121.351562 C 167.214844 121.246094 166.644531 121.195312 166.066406 121.203125 Z M 75.464844 156.015625 C 70.882812 156.015625 68.585938 161.566406 71.824219 164.804688 L 92.058594 185.03125 C 94.46875 187.441406 98.386719 187.441406 100.796875 185.03125 L 121.027344 164.804688 C 124.265625 161.566406 121.960938 156.015625 117.375 156.015625 Z M 75.464844 156.015625 " fill-opacity="1" fill-rule="nonzero"/></g></svg>