<svg xmlns="http://www.w3.org/2000/svg" xmlns:xlink="http://www.w3.org/1999/xlink" width="256" zoomAndPan="magnify" viewBox="0 0 192 191.999996" height="256" preserveAspectRatio="xMidYMid meet" version="1.0"><defs><clipPath id="055ad2e4ff"><path d="M 17 3.714844 L 175 3.714844 L 175 187 L 17 187 Z M 17 3.714844 " clip-rule="nonzero"/></clipPath></defs><g clip-path="url(#055ad2e4ff)"><path fill="#ffffff" d="M 96.433594 3.359375 C 94.855469 3.359375 93.269531 3.957031 92.0625 5.160156 L 71.828125 25.394531 C 68.589844 28.632812 70.890625 34.1875 75.46875 34.1875 L 117.378906 34.1875 C 121.96875 34.1875 124.273438 28.632812 121.035156 25.394531 L 100.800781 5.160156 C 99.597656 3.957031 98.011719 3.359375 96.433594 3.359375 Z M 26.789062 51.597656 C 26.210938 51.589844 25.640625 51.636719 25.070312 51.742188 C 24.503906 51.847656 23.953125 52.007812 23.417969 52.222656 C 22.882812 52.4375 22.375 52.703125 21.890625 53.019531 C 21.410156 53.335938 20.960938 53.699219 20.550781 54.101562 C 20.140625 54.507812 19.773438 54.949219 19.453125 55.425781 C 19.128906 55.90625 18.855469 56.410156 18.632812 56.941406 C 18.410156 57.472656 18.242188 58.023438 18.128906 58.589844 C 18.015625 59.15625 17.957031 59.726562 17.957031 60.300781 C 17.957031 60.878906 18.015625 61.449219 18.128906 62.015625 C 18.242188 62.582031 18.410156 63.128906 18.632812 63.664062 C 18.855469 64.195312 19.128906 64.699219 19.453125 65.179688 C 19.773438 65.65625 20.140625 66.097656 20.550781 66.503906 C 20.960938 66.90625 21.410156 67.269531 21.890625 67.585938 C 22.375 67.898438 22.882812 68.164062 23.417969 68.382812 C 23.953125 68.597656 24.503906 68.757812 25.070312 68.863281 C 25.640625 68.96875 26.210938 69.015625 26.789062 69.007812 L 166.078125 69.007812 C 166.652344 69.015625 167.226562 68.96875 167.792969 68.863281 C 168.359375 68.757812 168.910156 68.597656 169.445312 68.382812 C 169.980469 68.164062 170.492188 67.898438 170.972656 67.585938 C 171.457031 67.269531 171.902344 66.90625 172.3125 66.503906 C 172.722656 66.097656 173.089844 65.65625 173.414062 65.179688 C 173.738281 64.699219 174.011719 64.195312 174.234375 63.664062 C 174.457031 63.128906 174.625 62.582031 174.738281 62.015625 C 174.851562 61.449219 174.90625 60.878906 174.90625 60.300781 C 174.90625 59.726562 174.851562 59.15625 174.738281 58.589844 C 174.625 58.023438 174.457031 57.472656 174.234375 56.941406 C 174.011719 56.410156 173.738281 55.90625 173.414062 55.425781 C 173.089844 54.949219 172.722656 54.507812 172.3125 54.101562 C 171.902344 53.699219 171.457031 53.335938 170.972656 53.019531 C 170.492188 52.703125 169.980469 52.4375 169.445312 52.222656 C 168.910156 52.007812 168.359375 51.847656 167.792969 51.742188 C 167.226562 51.636719 166.652344 51.589844 166.078125 51.597656 Z M 26.789062 86.417969 C 26.210938 86.410156 25.640625 86.460938 25.070312 86.566406 C 24.503906 86.671875 23.953125 86.832031 23.417969 87.046875 C 22.882812 87.261719 22.375 87.527344 21.890625 87.84375 C 21.410156 88.160156 20.964844 88.519531 20.550781 88.925781 C 20.140625 89.332031 19.773438 89.773438 19.453125 90.25 C 19.128906 90.726562 18.855469 91.234375 18.632812 91.765625 C 18.410156 92.296875 18.242188 92.84375 18.128906 93.410156 C 18.015625 93.976562 17.957031 94.546875 17.957031 95.125 C 17.957031 95.703125 18.015625 96.273438 18.128906 96.839844 C 18.242188 97.402344 18.410156 97.953125 18.632812 98.484375 C 18.855469 99.015625 19.128906 99.523438 19.453125 100 C 19.773438 100.476562 20.140625 100.917969 20.550781 101.324219 C 20.964844 101.730469 21.410156 102.089844 21.890625 102.40625 C 22.375 102.722656 22.882812 102.988281 23.417969 103.203125 C 23.953125 103.417969 24.503906 103.578125 25.070312 103.683594 C 25.640625 103.789062 26.210938 103.839844 26.789062 103.832031 L 166.078125 103.832031 C 166.652344 103.839844 167.226562 103.789062 167.792969 103.683594 C 168.359375 103.578125 168.910156 103.417969 169.445312 103.203125 C 169.980469 102.988281 170.492188 102.722656 170.972656 102.40625 C 171.457031 102.089844 171.902344 101.730469 172.3125 101.324219 C 172.722656 100.917969 173.089844 100.476562 173.414062 100 C 173.738281 99.523438 174.007812 99.015625 174.230469 98.484375 C 174.453125 97.953125 174.621094 97.402344 174.738281 96.839844 C 174.851562 96.273438 174.90625 95.703125 174.90625 95.125 C 174.90625 94.546875 174.851562 93.976562 174.738281 93.410156 C 174.621094 92.84375 174.453125 92.296875 174.230469 91.765625 C 174.007812 91.234375 173.738281 90.726562 173.414062 90.25 C 173.089844 89.773438 172.722656 89.332031 172.3125 88.925781 C 171.902344 88.519531 171.457031 88.160156 170.972656 87.84375 C 170.492188 87.527344 169.980469 87.261719 169.445312 87.046875 C 168.910156 86.832031 168.359375 86.671875 167.792969 86.566406 C 167.226562 86.460938 166.652344 86.410156 166.078125 86.417969 Z M 26.789062 121.242188 C 26.210938 121.234375 25.640625 121.28125 25.070312 121.386719 C 24.503906 121.492188 23.953125 121.652344 23.417969 121.867188 C 22.882812 122.082031 22.375 122.347656 21.890625 122.664062 C 21.410156 122.980469 20.964844 123.34375 20.550781 123.746094 C 20.140625 124.152344 19.773438 124.59375 19.453125 125.070312 C 19.128906 125.550781 18.855469 126.054688 18.632812 126.585938 C 18.410156 127.117188 18.242188 127.667969 18.128906 128.234375 C 18.015625 128.800781 17.957031 129.371094 17.957031 129.945312 C 17.957031 130.523438 18.015625 131.09375 18.128906 131.660156 C 18.242188 132.226562 18.410156 132.773438 18.632812 133.308594 C 18.855469 133.839844 19.128906 134.34375 19.453125 134.824219 C 19.773438 135.300781 20.140625 135.742188 20.550781 136.148438 C 20.964844 136.550781 21.410156 136.914062 21.890625 137.230469 C 22.375 137.546875 22.882812 137.8125 23.417969 138.027344 C 23.953125 138.242188 24.503906 138.402344 25.070312 138.507812 C 25.640625 138.613281 26.210938 138.660156 26.789062 138.652344 L 166.078125 138.652344 C 166.652344 138.660156 167.226562 138.613281 167.792969 138.507812 C 168.359375 138.402344 168.910156 138.242188 169.445312 138.027344 C 169.980469 137.8125 170.492188 137.546875 170.972656 137.230469 C 171.457031 136.914062 171.902344 136.550781 172.3125 136.148438 C 172.722656 135.742188 173.089844 135.300781 173.414062 134.824219 C 173.738281 134.34375 174.007812 133.839844 174.230469 133.308594 C 174.453125 132.773438 174.621094 132.226562 174.738281 131.660156 C 174.851562 131.09375 174.90625 130.523438 174.90625 129.945312 C 174.90625 129.371094 174.851562 128.800781 174.738281 128.234375 C 174.621094 127.667969 174.453125 127.121094 174.230469 126.585938 C 174.007812 126.054688 173.738281 125.550781 173.414062 125.070312 C 173.089844 124.59375 172.722656 124.152344 172.3125 123.746094 C 171.902344 123.34375 171.457031 122.980469 170.972656 122.664062 C 170.492188 122.347656 169.980469 122.082031 169.445312 121.867188 C 168.910156 121.652344 168.359375 121.492188 167.792969 121.386719 C 167.226562 121.28125 166.652344 121.234375 166.078125 121.242188 Z M 75.46875 156.0625 C 70.890625 156.0625 68.589844 161.617188 71.828125 164.855469 L 92.0625 185.089844 C 94.472656 187.5 98.390625 187.5 100.800781 185.089844 L 121.035156 164.855469 C 124.273438 161.617188 121.96875 156.0625 117.378906 156.0625 Z M 75.46875 156.0625 " fill-opacity="1" fill-rule="nonzero"/></g></svg>