<svg xmlns="http://www.w3.org/2000/svg" xmlns:xlink="http://www.w3.org/1999/xlink" width="256" zoomAndPan="magnify" viewBox="0 0 192 191.999996" height="256" preserveAspectRatio="xMidYMid meet" version="1.0"><defs><clipPath id="3b0ed9c0b8"><path d="M 3.667969 3.667969 L 188.167969 3.667969 L 188.167969 188.167969 L 3.667969 188.167969 Z M 3.667969 3.667969 " clip-rule="nonzero"/></clipPath><clipPath id="cb9087e385"><path d="M 26 25.21875 L 166.96875 25.21875 L 166.96875 166 L 26 166 Z M 26 25.21875 " clip-rule="nonzero"/></clipPath></defs><g clip-path="url(#3b0ed9c0b8)"><path fill="#ffffff" d="M 95.996094 188.320312 C 44.988281 188.320312 3.667969 146.71875 3.667969 95.996094 C 3.667969 45.273438 44.988281 3.667969 95.996094 3.667969 C 147.003906 3.667969 188.320312 44.988281 188.320312 95.996094 C 188.320312 147.003906 146.71875 188.320312 95.996094 188.320312 Z M 95.996094 9.367188 C 48.121094 9.367188 9.367188 48.121094 9.367188 95.996094 C 9.367188 143.867188 48.121094 182.621094 95.996094 182.621094 C 143.867188 182.621094 182.621094 143.867188 182.621094 95.996094 C 182.621094 48.121094 143.582031 9.367188 95.996094 9.367188 Z M 95.996094 9.367188 " fill-opacity="1" fill-rule="nonzero"/></g><g clip-path="url(#cb9087e385)"><path fill="#ffffff" d="M 166.78125 102.304688 C 166.570312 104.503906 166.257812 106.691406 165.839844 108.859375 C 165.421875 111.027344 164.90625 113.171875 164.285156 115.292969 C 163.667969 117.414062 162.949219 119.5 162.132812 121.554688 C 161.320312 123.609375 160.410156 125.617188 159.40625 127.585938 C 158.398438 129.554688 157.304688 131.46875 156.121094 133.332031 C 154.9375 135.199219 153.664062 137.003906 152.3125 138.746094 C 150.957031 140.492188 149.523438 142.167969 148.007812 143.777344 C 146.496094 145.386719 144.910156 146.921875 143.253906 148.382812 C 141.597656 149.84375 139.875 151.222656 138.085938 152.523438 C 136.300781 153.820312 134.453125 155.03125 132.554688 156.15625 C 130.652344 157.28125 128.703125 158.3125 126.703125 159.253906 C 124.703125 160.195312 122.667969 161.039062 120.589844 161.789062 C 118.511719 162.539062 116.402344 163.1875 114.261719 163.738281 C 112.121094 164.289062 109.960938 164.738281 107.78125 165.085938 C 105.597656 165.433594 103.40625 165.675781 101.199219 165.816406 C 98.996094 165.957031 96.789062 165.992188 94.582031 165.925781 C 92.375 165.859375 90.171875 165.6875 87.980469 165.414062 C 85.789062 165.140625 83.617188 164.761719 81.460938 164.285156 C 79.300781 163.804688 77.171875 163.226562 75.070312 162.546875 C 72.96875 161.867188 70.902344 161.089844 68.875 160.214844 C 66.847656 159.339844 64.863281 158.375 62.925781 157.3125 C 60.988281 156.25 59.105469 155.101562 57.273438 153.863281 C 55.445312 152.625 53.679688 151.304688 51.972656 149.898438 C 50.269531 148.496094 48.632812 147.011719 47.066406 145.453125 C 45.503906 143.894531 44.011719 142.265625 42.601562 140.566406 C 41.1875 138.871094 39.859375 137.109375 38.613281 135.285156 C 37.367188 133.460938 36.210938 131.582031 35.140625 129.648438 C 34.070312 127.714844 33.09375 125.734375 32.210938 123.710938 C 31.328125 121.6875 30.542969 119.625 29.855469 117.527344 C 29.164062 115.425781 28.578125 113.300781 28.089844 111.144531 C 27.601562 108.992188 27.214844 106.820312 26.929688 104.628906 C 26.644531 102.4375 26.464844 100.238281 26.386719 98.03125 C 26.3125 95.824219 26.339844 93.617188 26.46875 91.410156 C 26.601562 89.207031 26.835938 87.011719 27.171875 84.828125 C 27.507812 82.644531 27.949219 80.484375 28.488281 78.339844 C 29.03125 76.199219 29.671875 74.085938 30.410156 72.007812 C 31.152344 69.925781 31.988281 67.882812 32.921875 65.878906 C 33.851562 63.875 34.875 61.921875 35.992188 60.015625 C 37.109375 58.109375 38.3125 56.261719 39.601562 54.46875 C 40.894531 52.675781 42.265625 50.945312 43.71875 49.28125 C 45.171875 47.617188 46.699219 46.027344 48.304688 44.507812 C 49.90625 42.988281 51.578125 41.546875 53.316406 40.183594 C 55.054688 38.820312 56.855469 37.542969 58.714844 36.351562 C 60.574219 35.15625 62.484375 34.054688 64.445312 33.039062 C 66.410156 32.027344 68.414062 31.109375 70.464844 30.285156 C 72.515625 29.460938 74.597656 28.734375 76.714844 28.105469 C 78.835938 27.476562 80.976562 26.949219 83.144531 26.523438 C 85.3125 26.097656 87.496094 25.773438 89.691406 25.554688 C 90.085938 25.496094 90.476562 25.507812 90.867188 25.589844 C 91.257812 25.671875 91.621094 25.816406 91.957031 26.027344 C 92.292969 26.238281 92.585938 26.5 92.828125 26.8125 C 93.074219 27.128906 93.253906 27.472656 93.375 27.851562 C 93.496094 28.230469 93.550781 28.621094 93.53125 29.015625 C 93.515625 29.414062 93.429688 29.796875 93.277344 30.164062 C 93.125 30.53125 92.914062 30.859375 92.640625 31.152344 C 92.371094 31.445312 92.058594 31.679688 91.707031 31.859375 C 90.863281 32.332031 90.035156 32.828125 89.21875 33.347656 C 88.402344 33.867188 87.605469 34.410156 86.820312 34.976562 C 86.039062 35.542969 85.273438 36.128906 84.523438 36.738281 C 83.773438 37.347656 83.042969 37.980469 82.328125 38.632812 C 81.613281 39.285156 80.921875 39.957031 80.246094 40.648438 C 79.574219 41.339844 78.917969 42.050781 78.285156 42.78125 C 77.652344 43.511719 77.039062 44.261719 76.449219 45.023438 C 75.859375 45.789062 75.292969 46.570312 74.746094 47.371094 C 74.203125 48.167969 73.679688 48.980469 73.183594 49.808594 C 72.683594 50.636719 72.210938 51.480469 71.761719 52.335938 C 71.3125 53.1875 70.886719 54.058594 70.488281 54.9375 C 70.085938 55.816406 69.714844 56.707031 69.367188 57.609375 C 69.015625 58.511719 68.695312 59.421875 68.398438 60.339844 C 68.105469 61.261719 67.835938 62.1875 67.59375 63.125 C 67.351562 64.058594 67.136719 65 66.949219 65.949219 C 66.761719 66.898438 66.601562 67.851562 66.46875 68.808594 C 66.335938 69.765625 66.230469 70.726562 66.152344 71.6875 C 66.074219 72.652344 66.023438 73.617188 66.003906 74.582031 C 65.980469 75.546875 65.988281 76.515625 66.023438 77.480469 C 66.054688 78.445312 66.117188 79.410156 66.207031 80.371094 C 66.296875 81.332031 66.414062 82.292969 66.558594 83.25 C 66.703125 84.203125 66.875 85.152344 67.074219 86.097656 C 67.273438 87.046875 67.5 87.984375 67.753906 88.917969 C 68.007812 89.847656 68.289062 90.773438 68.597656 91.6875 C 68.90625 92.605469 69.238281 93.511719 69.597656 94.410156 C 69.957031 95.304688 70.34375 96.191406 70.753906 97.066406 C 71.164062 97.941406 71.597656 98.804688 72.058594 99.652344 C 72.519531 100.503906 73.003906 101.339844 73.511719 102.160156 C 74.019531 102.980469 74.550781 103.789062 75.109375 104.578125 C 75.664062 105.371094 76.238281 106.144531 76.839844 106.902344 C 77.441406 107.660156 78.0625 108.398438 78.703125 109.121094 C 79.34375 109.84375 80.007812 110.546875 80.691406 111.230469 C 81.375 111.914062 82.078125 112.578125 82.796875 113.21875 C 83.519531 113.863281 84.257812 114.484375 85.015625 115.085938 C 85.773438 115.6875 86.546875 116.265625 87.335938 116.820312 C 88.128906 117.375 88.933594 117.910156 89.753906 118.417969 C 90.574219 118.925781 91.410156 119.414062 92.261719 119.875 C 93.109375 120.335938 93.972656 120.773438 94.84375 121.183594 C 95.71875 121.59375 96.605469 121.980469 97.5 122.339844 C 98.398438 122.703125 99.304688 123.035156 100.21875 123.34375 C 101.136719 123.652344 102.058594 123.933594 102.992188 124.1875 C 103.925781 124.441406 104.863281 124.671875 105.808594 124.871094 C 106.753906 125.070312 107.703125 125.246094 108.660156 125.390625 C 109.613281 125.535156 110.574219 125.65625 111.535156 125.746094 C 112.496094 125.835938 113.460938 125.898438 114.425781 125.933594 C 115.394531 125.96875 116.359375 125.976562 117.324219 125.953125 C 118.292969 125.933594 119.257812 125.886719 120.21875 125.808594 C 121.183594 125.730469 122.144531 125.628906 123.101562 125.496094 C 124.058594 125.363281 125.011719 125.203125 125.957031 125.019531 C 126.90625 124.832031 127.847656 124.617188 128.785156 124.375 C 129.71875 124.132812 130.648438 123.867188 131.570312 123.570312 C 132.488281 123.277344 133.398438 122.957031 134.300781 122.609375 C 135.203125 122.261719 136.09375 121.886719 136.976562 121.488281 C 137.855469 121.089844 138.722656 120.667969 139.578125 120.21875 C 140.433594 119.769531 141.277344 119.296875 142.105469 118.800781 C 142.933594 118.300781 143.746094 117.78125 144.546875 117.238281 C 145.34375 116.691406 146.125 116.125 146.890625 115.535156 C 147.65625 114.945312 148.40625 114.335938 149.136719 113.703125 C 149.867188 113.070312 150.578125 112.417969 151.273438 111.742188 C 151.964844 111.070312 152.636719 110.378906 153.289062 109.664062 C 153.941406 108.953125 154.574219 108.222656 155.1875 107.472656 C 155.796875 106.722656 156.386719 105.957031 156.953125 105.175781 C 157.519531 104.390625 158.0625 103.59375 158.582031 102.777344 C 159.101562 101.964844 159.597656 101.136719 160.070312 100.292969 C 160.289062 99.976562 160.550781 99.707031 160.855469 99.476562 C 161.164062 99.25 161.5 99.078125 161.863281 98.960938 C 162.230469 98.847656 162.601562 98.792969 162.984375 98.804688 C 163.367188 98.8125 163.738281 98.882812 164.097656 99.019531 C 164.476562 99.097656 164.832031 99.234375 165.160156 99.433594 C 165.492188 99.636719 165.78125 99.886719 166.023438 100.183594 C 166.269531 100.484375 166.457031 100.816406 166.585938 101.179688 C 166.714844 101.542969 166.78125 101.917969 166.78125 102.304688 Z M 166.78125 102.304688 " fill-opacity="1" fill-rule="nonzero"/></g></svg>