<svg xmlns="http://www.w3.org/2000/svg" xmlns:xlink="http://www.w3.org/1999/xlink" width="256" zoomAndPan="magnify" viewBox="0 0 192 191.999996" height="256" preserveAspectRatio="xMidYMid meet" version="1.0"><defs><clipPath id="659c8cdefa"><path d="M 91 24.375 L 103 24.375 L 103 60 L 91 60 Z M 91 24.375 " clip-rule="nonzero"/></clipPath><clipPath id="208d62f4e7"><path d="M 134 91 L 169.125 91 L 169.125 103 L 134 103 Z M 134 91 " clip-rule="nonzero"/></clipPath><clipPath id="8675286355"><path d="M 91 134 L 103 134 L 103 169.125 L 91 169.125 Z M 91 134 " clip-rule="nonzero"/></clipPath><clipPath id="eaf35e2cdb"><path d="M 24.375 91 L 60 91 L 60 103 L 24.375 103 Z M 24.375 91 " clip-rule="nonzero"/></clipPath><clipPath id="3a4b1f4d52"><path d="M 4.414062 4.414062 L 188.914062 4.414062 L 188.914062 188.914062 L 4.414062 188.914062 Z M 4.414062 4.414062 " clip-rule="nonzero"/></clipPath></defs><path fill="#100f0d" d="M 96.738281 117.003906 C 85.566406 117.003906 76.480469 107.917969 76.480469 96.75 C 76.480469 85.578125 85.566406 76.492188 96.738281 76.492188 C 107.90625 76.492188 116.992188 85.578125 116.992188 96.75 C 116.992188 107.917969 107.90625 117.003906 96.738281 117.003906 Z M 96.738281 65.828125 C 79.6875 65.828125 65.816406 79.699219 65.816406 96.75 C 65.816406 113.796875 79.6875 127.667969 96.738281 127.667969 C 113.785156 127.667969 127.65625 113.796875 127.65625 96.75 C 127.65625 79.699219 113.785156 65.828125 96.738281 65.828125 " fill-opacity="1" fill-rule="nonzero"/><g clip-path="url(#659c8cdefa)"><path fill="#100f0d" d="M 96.738281 59.199219 C 99.679688 59.199219 102.066406 56.8125 102.066406 53.867188 L 102.066406 29.71875 C 102.066406 26.773438 99.679688 24.386719 96.738281 24.386719 C 93.789062 24.386719 91.402344 26.773438 91.402344 29.71875 L 91.402344 53.867188 C 91.402344 56.8125 93.789062 59.199219 96.738281 59.199219 " fill-opacity="1" fill-rule="nonzero"/></g><path fill="#100f0d" d="M 127.054688 71.761719 C 128.417969 71.761719 129.785156 71.242188 130.824219 70.199219 L 147.90625 53.121094 C 149.988281 51.039062 149.988281 47.660156 147.90625 45.578125 C 145.824219 43.496094 142.445312 43.496094 140.363281 45.578125 L 123.285156 62.65625 C 121.203125 64.742188 121.203125 68.117188 123.285156 70.199219 C 124.328125 71.242188 125.691406 71.761719 127.054688 71.761719 " fill-opacity="1" fill-rule="nonzero"/><g clip-path="url(#208d62f4e7)"><path fill="#100f0d" d="M 163.769531 91.417969 L 139.613281 91.417969 C 136.671875 91.417969 134.285156 93.804688 134.285156 96.75 C 134.285156 99.695312 136.671875 102.082031 139.613281 102.082031 L 163.769531 102.082031 C 166.714844 102.082031 169.101562 99.695312 169.101562 96.75 C 169.101562 93.804688 166.714844 91.417969 163.769531 91.417969 " fill-opacity="1" fill-rule="nonzero"/></g><path fill="#100f0d" d="M 130.824219 123.300781 C 128.742188 121.214844 125.367188 121.21875 123.285156 123.300781 C 121.203125 125.382812 121.203125 128.757812 123.285156 130.839844 L 140.363281 147.917969 C 141.40625 148.960938 142.769531 149.480469 144.136719 149.480469 C 145.5 149.480469 146.863281 148.960938 147.90625 147.917969 C 149.988281 145.835938 149.988281 142.460938 147.90625 140.378906 L 130.824219 123.300781 " fill-opacity="1" fill-rule="nonzero"/><g clip-path="url(#8675286355)"><path fill="#100f0d" d="M 96.738281 134.296875 C 93.789062 134.296875 91.402344 136.683594 91.402344 139.628906 L 91.402344 163.785156 C 91.402344 166.730469 93.789062 169.117188 96.738281 169.117188 C 99.679688 169.117188 102.066406 166.730469 102.066406 163.785156 L 102.066406 139.628906 C 102.066406 136.683594 99.679688 134.296875 96.738281 134.296875 " fill-opacity="1" fill-rule="nonzero"/></g><path fill="#100f0d" d="M 62.644531 123.300781 L 45.566406 140.378906 C 43.484375 142.460938 43.484375 145.835938 45.566406 147.917969 C 46.605469 148.960938 47.972656 149.480469 49.335938 149.480469 C 50.699219 149.480469 52.066406 148.960938 53.105469 147.917969 L 70.183594 130.839844 C 72.265625 128.757812 72.265625 125.382812 70.183594 123.300781 C 68.101562 121.214844 64.726562 121.21875 62.644531 123.300781 " fill-opacity="1" fill-rule="nonzero"/><g clip-path="url(#eaf35e2cdb)"><path fill="#100f0d" d="M 59.1875 96.75 C 59.1875 93.804688 56.800781 91.417969 53.855469 91.417969 L 29.699219 91.417969 C 26.753906 91.417969 24.367188 93.804688 24.367188 96.75 C 24.367188 99.695312 26.753906 102.082031 29.699219 102.082031 L 53.855469 102.082031 C 56.800781 102.082031 59.1875 99.695312 59.1875 96.75 " fill-opacity="1" fill-rule="nonzero"/></g><path fill="#100f0d" d="M 62.644531 70.199219 C 63.6875 71.242188 65.050781 71.761719 66.414062 71.761719 C 67.78125 71.761719 69.144531 71.242188 70.183594 70.199219 C 72.265625 68.117188 72.265625 64.742188 70.183594 62.65625 L 53.105469 45.578125 C 51.023438 43.496094 47.648438 43.496094 45.566406 45.578125 C 43.484375 47.660156 43.484375 51.039062 45.566406 53.121094 L 62.644531 70.199219 " fill-opacity="1" fill-rule="nonzero"/><g clip-path="url(#3a4b1f4d52)"><path fill="#000000" d="M 96.664062 188.914062 C 45.699219 188.914062 4.414062 147.34375 4.414062 96.664062 C 4.414062 45.984375 45.699219 4.414062 96.664062 4.414062 C 147.628906 4.414062 188.914062 45.699219 188.914062 96.664062 C 188.914062 147.628906 147.34375 188.914062 96.664062 188.914062 Z M 96.664062 10.109375 C 48.832031 10.109375 10.109375 48.832031 10.109375 96.664062 C 10.109375 144.496094 48.832031 183.21875 96.664062 183.21875 C 144.496094 183.21875 183.21875 144.496094 183.21875 96.664062 C 183.21875 48.832031 144.210938 10.109375 96.664062 10.109375 Z M 96.664062 10.109375 " fill-opacity="1" fill-rule="nonzero"/></g></svg>