<svg xmlns="http://www.w3.org/2000/svg" xmlns:xlink="http://www.w3.org/1999/xlink" width="256" zoomAndPan="magnify" viewBox="0 0 192 191.999996" height="256" preserveAspectRatio="xMidYMid meet" version="1.0"><defs><clipPath id="bff0e92f55"><path d="M 3.738281 3.738281 L 188.238281 3.738281 L 188.238281 188.238281 L 3.738281 188.238281 Z M 3.738281 3.738281 " clip-rule="nonzero"/></clipPath></defs><g clip-path="url(#bff0e92f55)"><path fill="#ffffff" d="M 96.050781 3.738281 C 121.449219 3.738281 144.582031 14.117188 161.226562 30.761719 C 177.875 47.515625 188.25 70.539062 188.25 96.050781 C 188.25 121.449219 177.875 144.582031 161.226562 161.226562 C 144.582031 177.875 121.449219 188.25 96.050781 188.25 C 70.539062 188.25 47.515625 177.875 30.761719 161.226562 C 14.117188 144.582031 3.738281 121.449219 3.738281 96.050781 C 3.738281 70.539062 14.117188 47.515625 30.761719 30.761719 C 47.515625 14.117188 70.539062 3.738281 96.050781 3.738281 Z M 155.175781 36.921875 C 140.042969 21.789062 119.074219 12.386719 96.050781 12.386719 C 72.917969 12.386719 52.054688 21.789062 36.921875 36.921875 C 21.789062 52.054688 12.386719 72.917969 12.386719 96.050781 C 12.386719 119.074219 21.789062 140.042969 36.921875 155.175781 C 52.054688 170.199219 72.917969 179.605469 96.050781 179.605469 C 119.074219 179.605469 140.042969 170.199219 155.175781 155.175781 C 170.199219 140.042969 179.605469 119.074219 179.605469 96.050781 C 179.605469 72.917969 170.199219 52.054688 155.175781 36.921875 Z M 155.175781 36.921875 " fill-opacity="1" fill-rule="nonzero"/></g><path fill="#ffffff" d="M 53.027344 45.679688 C 55.300781 43.410156 57.785156 41.355469 60.378906 39.410156 C 62.972656 37.464844 65.675781 35.734375 68.59375 34.222656 L 68.484375 34.113281 C 70.648438 33.03125 73.242188 33.789062 74.429688 35.949219 C 75.1875 37.355469 75.078125 39.085938 74.214844 40.273438 C 68.484375 51.191406 66.539062 63.621094 68.269531 75.511719 C 70 87.292969 75.402344 98.535156 84.484375 107.613281 C 93.457031 116.585938 104.804688 121.992188 116.480469 123.722656 C 128.585938 125.558594 141.015625 123.503906 152.039062 117.667969 C 154.09375 116.480469 156.6875 117.34375 157.878906 119.398438 C 158.632812 120.910156 158.527344 122.53125 157.660156 123.828125 C 156.148438 126.53125 154.527344 129.125 152.6875 131.71875 C 150.742188 134.3125 148.582031 136.800781 146.3125 139.070312 C 133.449219 151.933594 116.585938 158.417969 99.617188 158.417969 C 82.753906 158.417969 65.890625 151.933594 53.027344 139.070312 C 40.058594 126.207031 33.679688 109.238281 33.679688 92.375 C 33.679688 75.511719 40.058594 58.648438 53.027344 45.679688 Z M 53.027344 45.679688 " fill-opacity="1" fill-rule="nonzero"/></svg>