<svg xmlns="http://www.w3.org/2000/svg" xmlns:xlink="http://www.w3.org/1999/xlink" width="256" zoomAndPan="magnify" viewBox="0 0 192 191.999996" height="256" preserveAspectRatio="xMidYMid meet" version="1.0"><defs><clipPath id="58a98c5a8c"><path d="M 3.738281 3.738281 L 188.238281 3.738281 L 188.238281 188.238281 L 3.738281 188.238281 Z M 3.738281 3.738281 " clip-rule="nonzero"/></clipPath><clipPath id="07b812e188"><path d="M 22.15625 22.15625 L 171.40625 22.15625 L 171.40625 171.40625 L 22.15625 171.40625 Z M 22.15625 22.15625 " clip-rule="nonzero"/></clipPath><clipPath id="52ece586bd"><path d="M 91 24.375 L 103 24.375 L 103 60 L 91 60 Z M 91 24.375 " clip-rule="nonzero"/></clipPath><clipPath id="52d343e0e9"><path d="M 134 91 L 169.125 91 L 169.125 103 L 134 103 Z M 134 91 " clip-rule="nonzero"/></clipPath><clipPath id="4160b5a3cd"><path d="M 91 134 L 103 134 L 103 169.125 L 91 169.125 Z M 91 134 " clip-rule="nonzero"/></clipPath><clipPath id="6f01fcb61b"><path d="M 24.375 91 L 60 91 L 60 103 L 24.375 103 Z M 24.375 91 " clip-rule="nonzero"/></clipPath></defs><g clip-path="url(#58a98c5a8c)"><path fill="#000000" d="M 96.042969 3.738281 C 121.445312 3.738281 144.574219 14.117188 161.21875 30.761719 C 177.863281 47.515625 188.238281 70.535156 188.238281 96.042969 C 188.238281 121.445312 177.863281 144.574219 161.21875 161.21875 C 144.574219 177.863281 121.445312 188.238281 96.042969 188.238281 C 70.535156 188.238281 47.515625 177.863281 30.761719 161.21875 C 14.117188 144.574219 3.738281 121.445312 3.738281 96.042969 C 3.738281 70.535156 14.117188 47.515625 30.761719 30.761719 C 47.515625 14.117188 70.535156 3.738281 96.042969 3.738281 Z M 155.164062 36.921875 C 140.035156 21.789062 119.066406 12.386719 96.042969 12.386719 C 72.914062 12.386719 52.054688 21.789062 36.921875 36.921875 C 21.789062 52.054688 12.386719 72.914062 12.386719 96.042969 C 12.386719 119.066406 21.789062 140.035156 36.921875 155.164062 C 52.054688 170.1875 72.914062 179.59375 96.042969 179.59375 C 119.066406 179.59375 140.035156 170.1875 155.164062 155.164062 C 170.1875 140.035156 179.59375 119.066406 179.59375 96.042969 C 179.59375 72.914062 170.1875 52.054688 155.164062 36.921875 Z M 155.164062 36.921875 " fill-opacity="1" fill-rule="nonzero"/></g><path fill="#000000" d="M 53.027344 45.675781 C 55.296875 43.40625 57.78125 41.351562 60.375 39.40625 C 62.96875 37.460938 65.671875 35.734375 68.589844 34.21875 L 68.480469 34.109375 C 70.644531 33.03125 73.238281 33.785156 74.425781 35.949219 C 75.183594 37.355469 75.074219 39.082031 74.210938 40.273438 C 68.480469 51.1875 66.535156 63.617188 68.265625 75.507812 C 69.996094 87.289062 75.398438 98.53125 84.480469 107.609375 C 93.449219 116.578125 104.796875 121.984375 116.472656 123.714844 C 128.578125 125.550781 141.007812 123.496094 152.03125 117.660156 C 154.085938 116.472656 156.679688 117.335938 157.867188 119.390625 C 158.625 120.902344 158.515625 122.523438 157.652344 123.820312 C 156.136719 126.523438 154.515625 129.117188 152.679688 131.710938 C 150.734375 134.304688 148.574219 136.792969 146.304688 139.0625 C 133.441406 151.921875 116.578125 158.410156 99.609375 158.410156 C 82.75 158.410156 65.886719 151.921875 53.027344 139.0625 C 40.054688 126.199219 33.679688 109.230469 33.679688 92.367188 C 33.679688 75.507812 40.054688 58.644531 53.027344 45.675781 Z M 53.027344 45.675781 " fill-opacity="1" fill-rule="nonzero"/><g clip-path="url(#07b812e188)"><path fill="#ffffff" d="M 171.40625 96.78125 C 171.40625 98.003906 171.378906 99.226562 171.316406 100.445312 C 171.257812 101.664062 171.167969 102.882812 171.046875 104.097656 C 170.929688 105.3125 170.78125 106.523438 170.601562 107.734375 C 170.421875 108.941406 170.210938 110.144531 169.972656 111.339844 C 169.734375 112.539062 169.46875 113.730469 169.171875 114.914062 C 168.875 116.101562 168.550781 117.277344 168.195312 118.445312 C 167.839844 119.613281 167.457031 120.773438 167.046875 121.921875 C 166.632812 123.074219 166.195312 124.210938 165.726562 125.339844 C 165.261719 126.46875 164.765625 127.585938 164.242188 128.6875 C 163.722656 129.792969 163.171875 130.882812 162.597656 131.960938 C 162.019531 133.039062 161.417969 134.101562 160.792969 135.148438 C 160.164062 136.195312 159.511719 137.226562 158.832031 138.242188 C 158.152344 139.257812 157.449219 140.257812 156.722656 141.238281 C 155.996094 142.21875 155.242188 143.179688 154.46875 144.125 C 153.695312 145.070312 152.898438 145.992188 152.078125 146.898438 C 151.257812 147.804688 150.414062 148.6875 149.550781 149.550781 C 148.6875 150.414062 147.804688 151.257812 146.898438 152.078125 C 145.992188 152.898438 145.070312 153.695312 144.125 154.46875 C 143.179688 155.242188 142.21875 155.996094 141.238281 156.722656 C 140.257812 157.449219 139.257812 158.152344 138.242188 158.832031 C 137.226562 159.511719 136.195312 160.164062 135.148438 160.792969 C 134.101562 161.417969 133.039062 162.019531 131.960938 162.597656 C 130.882812 163.171875 129.792969 163.722656 128.6875 164.242188 C 127.585938 164.765625 126.46875 165.261719 125.339844 165.726562 C 124.210938 166.195312 123.074219 166.632812 121.921875 167.046875 C 120.773438 167.457031 119.613281 167.839844 118.445312 168.195312 C 117.277344 168.550781 116.101562 168.875 114.914062 169.171875 C 113.730469 169.46875 112.539062 169.734375 111.339844 169.972656 C 110.144531 170.210938 108.941406 170.421875 107.734375 170.601562 C 106.523438 170.78125 105.3125 170.929688 104.097656 171.046875 C 102.882812 171.167969 101.664062 171.257812 100.445312 171.316406 C 99.226562 171.378906 98.003906 171.40625 96.78125 171.40625 C 95.5625 171.40625 94.339844 171.378906 93.121094 171.316406 C 91.902344 171.257812 90.683594 171.167969 89.46875 171.046875 C 88.253906 170.929688 87.042969 170.78125 85.832031 170.601562 C 84.625 170.421875 83.421875 170.210938 82.222656 169.972656 C 81.027344 169.734375 79.835938 169.46875 78.652344 169.171875 C 77.464844 168.875 76.289062 168.550781 75.121094 168.195312 C 73.953125 167.839844 72.792969 167.457031 71.644531 167.046875 C 70.492188 166.632812 69.355469 166.195312 68.226562 165.726562 C 67.097656 165.261719 65.980469 164.765625 64.875 164.242188 C 63.773438 163.722656 62.683594 163.171875 61.605469 162.597656 C 60.527344 162.019531 59.464844 161.417969 58.417969 160.792969 C 57.371094 160.164062 56.339844 159.511719 55.324219 158.832031 C 54.308594 158.152344 53.308594 157.449219 52.328125 156.722656 C 51.347656 155.996094 50.386719 155.242188 49.441406 154.46875 C 48.496094 153.695312 47.574219 152.898438 46.667969 152.078125 C 45.761719 151.257812 44.878906 150.414062 44.015625 149.550781 C 43.152344 148.6875 42.308594 147.804688 41.488281 146.898438 C 40.667969 145.992188 39.871094 145.070312 39.097656 144.125 C 38.324219 143.179688 37.570312 142.21875 36.84375 141.238281 C 36.117188 140.257812 35.414062 139.257812 34.734375 138.242188 C 34.054688 137.226562 33.402344 136.195312 32.773438 135.148438 C 32.148438 134.101562 31.546875 133.039062 30.96875 131.960938 C 30.394531 130.882812 29.84375 129.792969 29.324219 128.6875 C 28.800781 127.585938 28.304688 126.46875 27.839844 125.339844 C 27.371094 124.210938 26.933594 123.074219 26.519531 121.921875 C 26.109375 120.773438 25.726562 119.613281 25.371094 118.445312 C 25.015625 117.277344 24.691406 116.101562 24.394531 114.914062 C 24.097656 113.730469 23.832031 112.539062 23.59375 111.339844 C 23.355469 110.144531 23.144531 108.941406 22.964844 107.734375 C 22.785156 106.523438 22.636719 105.3125 22.515625 104.097656 C 22.398438 102.882812 22.308594 101.664062 22.246094 100.445312 C 22.1875 99.226562 22.15625 98.003906 22.15625 96.78125 C 22.15625 95.5625 22.1875 94.339844 22.246094 93.121094 C 22.308594 91.902344 22.398438 90.683594 22.515625 89.46875 C 22.636719 88.253906 22.785156 87.042969 22.964844 85.832031 C 23.144531 84.625 23.355469 83.421875 23.59375 82.222656 C 23.832031 81.027344 24.097656 79.835938 24.394531 78.652344 C 24.691406 77.464844 25.015625 76.289062 25.371094 75.121094 C 25.726562 73.953125 26.109375 72.792969 26.519531 71.644531 C 26.933594 70.492188 27.371094 69.355469 27.839844 68.226562 C 28.304688 67.097656 28.800781 65.980469 29.324219 64.875 C 29.84375 63.773438 30.394531 62.683594 30.96875 61.605469 C 31.546875 60.527344 32.148438 59.464844 32.773438 58.417969 C 33.402344 57.371094 34.054688 56.339844 34.734375 55.324219 C 35.414062 54.308594 36.117188 53.308594 36.84375 52.328125 C 37.570312 51.347656 38.324219 50.386719 39.097656 49.441406 C 39.871094 48.496094 40.667969 47.574219 41.488281 46.667969 C 42.308594 45.761719 43.152344 44.878906 44.015625 44.015625 C 44.878906 43.152344 45.761719 42.308594 46.667969 41.488281 C 47.574219 40.667969 48.496094 39.871094 49.441406 39.097656 C 50.386719 38.324219 51.347656 37.570312 52.328125 36.84375 C 53.308594 36.117188 54.308594 35.414062 55.324219 34.734375 C 56.339844 34.054688 57.371094 33.402344 58.417969 32.773438 C 59.464844 32.148438 60.527344 31.546875 61.605469 30.96875 C 62.683594 30.394531 63.773438 29.84375 64.875 29.324219 C 65.980469 28.800781 67.097656 28.304688 68.226562 27.839844 C 69.355469 27.371094 70.492188 26.933594 71.644531 26.519531 C 72.792969 26.109375 73.953125 25.726562 75.121094 25.371094 C 76.289062 25.015625 77.464844 24.691406 78.652344 24.394531 C 79.835938 24.097656 81.027344 23.832031 82.222656 23.59375 C 83.421875 23.355469 84.625 23.144531 85.832031 22.964844 C 87.042969 22.785156 88.253906 22.636719 89.46875 22.515625 C 90.683594 22.398438 91.902344 22.308594 93.121094 22.246094 C 94.339844 22.1875 95.5625 22.15625 96.78125 22.15625 C 98.003906 22.15625 99.226562 22.1875 100.445312 22.246094 C 101.664062 22.308594 102.882812 22.398438 104.097656 22.515625 C 105.3125 22.636719 106.523438 22.785156 107.734375 22.964844 C 108.941406 23.144531 110.144531 23.355469 111.339844 23.59375 C 112.539062 23.832031 113.730469 24.097656 114.914062 24.394531 C 116.101562 24.691406 117.277344 25.015625 118.445312 25.371094 C 119.613281 25.726562 120.773438 26.109375 121.921875 26.519531 C 123.074219 26.933594 124.210938 27.371094 125.339844 27.839844 C 126.46875 28.304688 127.585938 28.800781 128.691406 29.324219 C 129.792969 29.84375 130.882812 30.394531 131.960938 30.96875 C 133.039062 31.546875 134.101562 32.148438 135.148438 32.773438 C 136.195312 33.402344 137.226562 34.054688 138.242188 34.734375 C 139.257812 35.414062 140.257812 36.117188 141.238281 36.84375 C 142.21875 37.570312 143.179688 38.324219 144.125 39.097656 C 145.070312 39.871094 145.992188 40.667969 146.898438 41.488281 C 147.804688 42.308594 148.6875 43.152344 149.550781 44.015625 C 150.414062 44.878906 151.257812 45.761719 152.078125 46.667969 C 152.898438 47.574219 153.695312 48.496094 154.46875 49.441406 C 155.242188 50.386719 155.996094 51.347656 156.722656 52.328125 C 157.449219 53.308594 158.152344 54.308594 158.832031 55.324219 C 159.511719 56.339844 160.164062 57.371094 160.792969 58.417969 C 161.417969 59.464844 162.019531 60.527344 162.597656 61.605469 C 163.171875 62.683594 163.722656 63.773438 164.242188 64.875 C 164.765625 65.980469 165.261719 67.097656 165.726562 68.226562 C 166.195312 69.355469 166.632812 70.492188 167.046875 71.644531 C 167.457031 72.792969 167.839844 73.953125 168.195312 75.121094 C 168.550781 76.289062 168.875 77.464844 169.171875 78.652344 C 169.46875 79.835938 169.734375 81.027344 169.972656 82.222656 C 170.210938 83.421875 170.421875 84.625 170.601562 85.832031 C 170.78125 87.042969 170.929688 88.253906 171.046875 89.46875 C 171.167969 90.683594 171.257812 91.902344 171.316406 93.121094 C 171.378906 94.339844 171.40625 95.5625 171.40625 96.78125 Z M 171.40625 96.78125 " fill-opacity="1" fill-rule="nonzero"/></g><path fill="#100f0d" d="M 96.738281 117.003906 C 85.566406 117.003906 76.480469 107.917969 76.480469 96.75 C 76.480469 85.578125 85.566406 76.492188 96.738281 76.492188 C 107.90625 76.492188 116.992188 85.578125 116.992188 96.75 C 116.992188 107.917969 107.90625 117.003906 96.738281 117.003906 Z M 96.738281 65.828125 C 79.6875 65.828125 65.816406 79.699219 65.816406 96.75 C 65.816406 113.796875 79.6875 127.667969 96.738281 127.667969 C 113.785156 127.667969 127.65625 113.796875 127.65625 96.75 C 127.65625 79.699219 113.785156 65.828125 96.738281 65.828125 " fill-opacity="1" fill-rule="nonzero"/><g clip-path="url(#52ece586bd)"><path fill="#100f0d" d="M 96.738281 59.199219 C 99.679688 59.199219 102.066406 56.8125 102.066406 53.867188 L 102.066406 29.71875 C 102.066406 26.773438 99.679688 24.386719 96.738281 24.386719 C 93.789062 24.386719 91.402344 26.773438 91.402344 29.71875 L 91.402344 53.867188 C 91.402344 56.8125 93.789062 59.199219 96.738281 59.199219 " fill-opacity="1" fill-rule="nonzero"/></g><path fill="#100f0d" d="M 127.054688 71.761719 C 128.417969 71.761719 129.785156 71.242188 130.824219 70.199219 L 147.90625 53.121094 C 149.988281 51.039062 149.988281 47.660156 147.90625 45.578125 C 145.824219 43.496094 142.445312 43.496094 140.363281 45.578125 L 123.285156 62.65625 C 121.203125 64.742188 121.203125 68.117188 123.285156 70.199219 C 124.328125 71.242188 125.691406 71.761719 127.054688 71.761719 " fill-opacity="1" fill-rule="nonzero"/><g clip-path="url(#52d343e0e9)"><path fill="#100f0d" d="M 163.769531 91.417969 L 139.613281 91.417969 C 136.671875 91.417969 134.285156 93.804688 134.285156 96.75 C 134.285156 99.695312 136.671875 102.082031 139.613281 102.082031 L 163.769531 102.082031 C 166.714844 102.082031 169.101562 99.695312 169.101562 96.75 C 169.101562 93.804688 166.714844 91.417969 163.769531 91.417969 " fill-opacity="1" fill-rule="nonzero"/></g><path fill="#100f0d" d="M 130.824219 123.300781 C 128.742188 121.214844 125.367188 121.21875 123.285156 123.300781 C 121.203125 125.382812 121.203125 128.757812 123.285156 130.839844 L 140.363281 147.917969 C 141.40625 148.960938 142.769531 149.480469 144.136719 149.480469 C 145.5 149.480469 146.863281 148.960938 147.90625 147.917969 C 149.988281 145.835938 149.988281 142.460938 147.90625 140.378906 L 130.824219 123.300781 " fill-opacity="1" fill-rule="nonzero"/><g clip-path="url(#4160b5a3cd)"><path fill="#100f0d" d="M 96.738281 134.296875 C 93.789062 134.296875 91.402344 136.683594 91.402344 139.628906 L 91.402344 163.785156 C 91.402344 166.730469 93.789062 169.117188 96.738281 169.117188 C 99.679688 169.117188 102.066406 166.730469 102.066406 163.785156 L 102.066406 139.628906 C 102.066406 136.683594 99.679688 134.296875 96.738281 134.296875 " fill-opacity="1" fill-rule="nonzero"/></g><path fill="#100f0d" d="M 62.644531 123.300781 L 45.566406 140.378906 C 43.484375 142.460938 43.484375 145.835938 45.566406 147.917969 C 46.605469 148.960938 47.972656 149.480469 49.335938 149.480469 C 50.699219 149.480469 52.066406 148.960938 53.105469 147.917969 L 70.183594 130.839844 C 72.265625 128.757812 72.265625 125.382812 70.183594 123.300781 C 68.101562 121.214844 64.726562 121.21875 62.644531 123.300781 " fill-opacity="1" fill-rule="nonzero"/><g clip-path="url(#6f01fcb61b)"><path fill="#100f0d" d="M 59.1875 96.75 C 59.1875 93.804688 56.800781 91.417969 53.855469 91.417969 L 29.699219 91.417969 C 26.753906 91.417969 24.367188 93.804688 24.367188 96.75 C 24.367188 99.695312 26.753906 102.082031 29.699219 102.082031 L 53.855469 102.082031 C 56.800781 102.082031 59.1875 99.695312 59.1875 96.75 " fill-opacity="1" fill-rule="nonzero"/></g><path fill="#100f0d" d="M 62.644531 70.199219 C 63.6875 71.242188 65.050781 71.761719 66.414062 71.761719 C 67.78125 71.761719 69.144531 71.242188 70.183594 70.199219 C 72.265625 68.117188 72.265625 64.742188 70.183594 62.65625 L 53.105469 45.578125 C 51.023438 43.496094 47.648438 43.496094 45.566406 45.578125 C 43.484375 47.660156 43.484375 51.039062 45.566406 53.121094 L 62.644531 70.199219 " fill-opacity="1" fill-rule="nonzero"/></svg>